<svg version="1.1" id="Layer_1" xmlns="http://www.w3.org/2000/svg" xmlns:xlink="http://www.w3.org/1999/xlink" x="0px" y="0px" viewBox="0 0 1200 1200" enable-background="new 0 0 1200 1200" xml:space="preserve">
<g>
	<g>
		<g>
			<g>
				<path fill="#EDF1F9" d="M747.924,125.604c-86.503-27.436-174.044-30.711-262.859-15.711&#10;&#9;&#9;&#9;&#9;&#9;c-38.038,6.425-73.556,19.973-108.679,35.87c-42.709,19.33-80.9,45.221-115.233,76.225&#10;&#9;&#9;&#9;&#9;&#9;c-37.629,33.981-67.857,74.275-92.997,118.749c-33.505,59.275-52.83,122.852-55.934,190.067&#10;&#9;&#9;&#9;&#9;&#9;c-4.773,103.326,19.224,200.204,79.291,285.863c30.792,43.91,66.554,83.569,113.337,111.694c2.73,1.641,5.495,5.066,6.082,8.081&#10;&#9;&#9;&#9;&#9;&#9;c1.751,9,4.827,18.719,3.018,27.229c-3.744,17.607-9.213,35.057-15.964,51.767c-11.263,27.884-24.089,55.137-37.467,85.39&#10;&#9;&#9;&#9;&#9;&#9;c6.633-1.827,10.625-2.716,14.476-4.021c38.404-13.008,76.849-25.898,115.154-39.192c38.94-13.513,77.664-27.645,116.666-40.971&#10;&#9;&#9;&#9;&#9;&#9;c5.824-1.99,12.688-1.74,19.001-1.354c20.978,1.281,41.913,4.333,62.883,4.486c81.5,0.597,159.821-14.471,234.027-49.232&#10;&#9;&#9;&#9;&#9;&#9;c57.848-27.098,109.468-62.644,151.374-111.169c66.208-76.667,106.446-164.182,113.576-266.557&#10;&#9;&#9;&#9;&#9;&#9;c5.535-79.496-7.027-155.198-44.417-225.23C978.582,246.446,878.749,167.096,747.924,125.604z M506.518,655.408&#10;&#9;&#9;&#9;&#9;&#9;c-5.517-22.252-6.801-45.76-8.07-68.817c-2.663-48.438-4.241-96.938-5.98-145.423c-1.215-33.91-2.459-67.833-2.679-101.756&#10;&#9;&#9;&#9;&#9;&#9;c-0.092-14.321,1.227-28.897,4.019-42.936c4.204-21.115,13.306-39.606,33.359-51.033c10.014-5.706,19.311-12.778,28.511-19.785&#10;&#9;&#9;&#9;&#9;&#9;c23.815-18.141,54.594-15.665,71.972,8.224c22.939,31.537,37.916,66.732,38.476,106.472&#10;&#9;&#9;&#9;&#9;&#9;c0.581,41.237,0.128,82.489,0.128,124.448c1.486,33.22,4.625,67.15,4.036,101.016c-0.525,30.249-2.773,60.887-8.5,90.534&#10;&#9;&#9;&#9;&#9;&#9;c-10.595,54.852-61.068,73.801-110.482,56.728C525.422,704.136,512.678,680.254,506.518,655.408z M618.487,917.58&#10;&#9;&#9;&#9;&#9;&#9;c-8.209,2.317-16.719,3.564-25.09,5.304c-30.077-1.522-52.358-18.952-61.199-51.964c-13.719-51.228,0.309-82.94,56.087-104.506&#10;&#9;&#9;&#9;&#9;&#9;c35.203-13.61,70.488,6.865,87.373,40.673C701.642,859.107,658.392,906.317,618.487,917.58z" style="fill: rgb(255, 255, 255);"/>
			</g>
		</g>
	</g>
	<g>
		<g>
			<path fill="#CC76A8" d="M276.175,952.1c-44.234-28.837-77.927-65.479-108.811-104.996&#10;&#9;&#9;&#9;&#9;c-47.735-61.076-79.438-129.302-93.5-205.787c-8.058-43.823-10.95-87.795-6.996-132.095&#10;&#9;&#9;&#9;&#9;c4.736-53.04,17.566-104.06,38.942-153.017c40.421-92.576,105.037-164.443,189.002-218.899&#10;&#9;&#9;&#9;&#9;c72.312-46.898,152.301-73.824,237.956-83.502c116.697-13.186,226.896,7.768,329.529,65.09&#10;&#9;&#9;&#9;&#9;c93.619,52.287,165.905,125.623,214.661,221.681c33.541,66.082,56.325,135.498,57.847,209.815&#10;&#9;&#9;&#9;&#9;c0.75,36.614-3.694,73.89-10.461,109.99c-14.71,78.494-50.303,147.796-102.058,208.405&#10;&#9;&#9;&#9;&#9;c-65.881,77.151-147.192,132.907-243.099,165.341c-81.781,27.657-166.158,37.547-252.372,24.408&#10;&#9;&#9;&#9;&#9;c-6.17-0.94-13.096-0.585-19.037,1.235c-32.457,9.945-64.842,20.166-97.017,30.99c-56.132,18.882-111.943,38.736-168.265,57.024&#10;&#9;&#9;&#9;&#9;c-10.156,3.298-22.341,2.402-33.132,0.641c-4.12-0.672-9.041-8.852-9.957-14.231c-2.12-12.442,2.658-23.656,9.084-34.659&#10;&#9;&#9;&#9;&#9;C235.511,1053.288,255.71,1003.888,276.175,952.1z M260.521,1100.83c6.632-1.827,10.625-2.716,14.476-4.021&#10;&#9;&#9;&#9;&#9;c38.404-13.008,76.849-25.898,115.154-39.192c38.94-13.514,77.665-27.645,116.667-40.972c5.825-1.99,12.689-1.739,19-1.354&#10;&#9;&#9;&#9;&#9;c20.978,1.28,41.913,4.333,62.882,4.486c81.501,0.597,159.822-14.471,234.028-49.232&#10;&#9;&#9;&#9;&#9;c57.848-27.098,109.467-62.644,151.373-111.169c66.21-76.667,106.447-164.182,113.576-266.557&#10;&#9;&#9;&#9;&#9;c5.535-79.496-7.027-155.198-44.417-225.23c-64.677-121.144-164.51-200.494-295.335-241.986&#10;&#9;&#9;&#9;&#9;c-86.504-27.436-174.045-30.711-262.859-15.71c-38.039,6.425-73.557,19.972-108.68,35.869&#10;&#9;&#9;&#9;&#9;c-42.708,19.33-80.899,45.221-115.231,76.226c-37.63,33.981-67.858,74.274-92.997,118.749&#10;&#9;&#9;&#9;&#9;c-33.506,59.275-52.83,122.852-55.934,190.066c-4.774,103.326,19.225,200.204,79.292,285.863&#10;&#9;&#9;&#9;&#9;c30.792,43.91,66.554,83.569,113.337,111.694c2.729,1.641,5.495,5.066,6.081,8.081c1.751,9,4.827,18.719,3.018,27.229&#10;&#9;&#9;&#9;&#9;c-3.743,17.607-9.212,35.056-15.962,51.766C286.726,1043.324,273.899,1070.577,260.521,1100.83z" style="fill: rgb(155, 68, 68);"/>
		</g>
		<g>
			<path fill="#CC76A8" d="M666.255,464.803c1.485,33.219,4.623,67.15,4.035,101.016c-0.526,30.248-2.775,60.886-8.5,90.534&#10;&#9;&#9;&#9;&#9;c-10.595,54.852-61.067,73.801-110.481,56.728c-25.887-8.944-38.632-32.826-44.79-57.672c-5.517-22.252-6.8-45.76-8.069-68.817&#10;&#9;&#9;&#9;&#9;c-2.664-48.438-4.242-96.938-5.98-145.423c-1.217-33.91-2.46-67.833-2.68-101.756c-0.093-14.321,1.227-28.897,4.019-42.935&#10;&#9;&#9;&#9;&#9;c4.203-21.116,13.306-39.606,33.359-51.033c10.014-5.706,19.311-12.778,28.511-19.785c23.815-18.141,54.595-15.665,71.971,8.225&#10;&#9;&#9;&#9;&#9;c22.939,31.536,37.916,66.732,38.477,106.472C666.707,381.592,666.255,422.844,666.255,464.803z" style="fill: rgb(155, 68, 68);"/>
		</g>
		<g>
			<path fill="#CC76A8" d="M593.397,922.884c-30.076-1.522-52.357-18.952-61.197-51.964c-13.721-51.228,0.309-82.941,56.085-104.506&#10;&#9;&#9;&#9;&#9;c35.203-13.61,70.488,6.865,87.374,40.673c25.981,52.02-17.267,99.23-57.173,110.492&#10;&#9;&#9;&#9;&#9;C610.278,919.897,601.768,921.144,593.397,922.884z" style="fill: rgb(155, 68, 68);"/>
		</g>
	</g>
</g>
</svg>